<svg width="1400" height="360" viewBox="0 0 1400 360" fill="none" xmlns="http://www.w3.org/2000/svg">
  <defs>
    <linearGradient id="bg" x1="0" y1="0" x2="1400" y2="360" gradientUnits="userSpaceOnUse">
      <stop stop-color="#102A43"/>
      <stop offset="0.55" stop-color="#1B4965"/>
      <stop offset="1" stop-color="#2EC4B6"/>
    </linearGradient>
    <linearGradient id="panel" x1="0" y1="0" x2="1" y2="1">
      <stop stop-color="#FFFFFF" stop-opacity="0.18"/>
      <stop offset="1" stop-color="#FFFFFF" stop-opacity="0.06"/>
    </linearGradient>
  </defs>
  <rect width="1400" height="360" rx="0" fill="url(#bg)"/>
  <circle cx="1180" cy="80" r="140" fill="#FFB703" fill-opacity="0.20"/>
  <circle cx="1260" cy="280" r="210" fill="#FFFFFF" fill-opacity="0.08"/>

  <g transform="translate(84 72)">
    <rect x="0" y="0" width="500" height="216" rx="28" fill="url(#panel)" stroke="#FFFFFF" stroke-opacity="0.22"/>
    <rect x="36" y="42" width="132" height="86" rx="18" fill="#0B1F33" stroke="#2EC4B6" stroke-width="8"/>
    <rect x="70" y="128" width="64" height="16" rx="8" fill="#2EC4B6"/>
    <circle cx="270" cy="86" r="46" fill="#0B1F33" stroke="#FFB703" stroke-width="8"/>
    <rect x="246" y="78" width="48" height="16" rx="8" fill="#FFB703"/>
    <rect x="262" y="62" width="16" height="48" rx="8" fill="#FFB703"/>
    <path d="M362 132C386 80 432 62 468 82C430 94 408 124 396 164C384 150 372 140 362 132Z" fill="#2EC4B6"/>
    <path d="M44 174H456" stroke="#FFFFFF" stroke-opacity="0.35" stroke-width="4" stroke-linecap="round"/>
  </g>

  <g transform="translate(650 88)">
    <text x="0" y="0" fill="#EAF4F4" font-family="Segoe UI, Arial, sans-serif" font-size="34" font-weight="600" letter-spacing="2">STUDENT BEHAVIOR INTELLIGENCE</text>
    <text x="0" y="74" fill="#FFFFFF" font-family="Segoe UI, Arial, sans-serif" font-size="58" font-weight="800">Gaming Academic</text>
    <text x="0" y="138" fill="#FFFFFF" font-family="Segoe UI, Arial, sans-serif" font-size="58" font-weight="800">Performance</text>
    <text x="0" y="194" fill="#CDE7E5" font-family="Segoe UI, Arial, sans-serif" font-size="24">8,000 students · 14 columns · Power Query + SQL + BI-ready</text>
  </g>
</svg>
